<?xml version="1.0" encoding="utf-8"?>
<svg width="48px" height="48px" viewBox="0 0 48 48" version="1.1" xmlns:xlink="http://www.w3.org/1999/xlink" xmlns="http://www.w3.org/2000/svg">
  <g id="编组">
    <path d="M0 0L48 0L48 48L0 48L0 0Z" id="矩形-复制-2" fill="#56009C" fill-rule="evenodd" stroke="none" />
    <path d="M40 18.5L8 18.5L8 26.5L9.35726 26.5L8.084 29.5L13.508 29.5L12.908 28.216L10.544 28.216L11.2717 26.5L14.0316 26.5L15.296 29.5L17.216 29.5L15.9427 26.5L17.768 26.5L17.768 27.484Q17.768 28.036 18.038 28.498Q18.308 28.96 18.77 29.23Q19.232 29.5 19.784 29.5L24.164 29.5L24.164 28.216L20.42 28.216Q20.12 28.216 19.904 28Q19.688 27.784 19.688 27.484L19.688 27.052L23.048 27.052Q23.576 27.052 23.942 26.68Q24.0268 26.5939 24.0919 26.5L25.244 26.5L25.244 29.5L27.164 29.5L27.164 26.5L29.852 26.5L29.852 29.5L31.784 29.5L31.784 26.5L32.72 26.5L32.72 27.628Q32.72 28.132 32.972 28.564Q33.224 28.996 33.65 29.248Q34.076 29.5 34.592 29.5L37.376 29.5Q37.892 29.5 38.324 29.248Q38.756 28.996 39.008 28.564Q39.26 28.132 39.26 27.628L39.26 26.5L40 26.5L40 18.5ZM37.328 26.5L39.26 26.5L39.26 25Q39.26 24.496 39.008 24.064Q38.756 23.632 38.324 23.38Q37.892 23.128 37.376 23.128L34.592 23.128Q34.076 23.128 33.65 23.38Q33.224 23.632 32.972 24.064Q32.72 24.496 32.72 25L32.72 26.5L34.64 26.5L34.64 27.244Q34.64 27.652 34.922 27.934Q35.204 28.216 35.612 28.216L36.356 28.216Q36.764 28.216 37.046 27.934Q37.328 27.652 37.328 27.244L37.328 26.5ZM37.328 26.5L34.64 26.5L34.64 25.384Q34.64 24.976 34.922 24.694Q35.204 24.412 35.612 24.412L36.356 24.412Q36.764 24.412 37.046 24.694Q37.328 24.976 37.328 25.384L37.328 26.5ZM31.784 26.5L31.784 25Q31.784 24.496 31.532 24.064Q31.28 23.632 30.848 23.38Q30.416 23.128 29.9 23.128L27.116 23.128Q26.612 23.128 26.18 23.38Q25.748 23.632 25.496 24.064Q25.244 24.496 25.244 25L25.244 26.5L27.164 26.5L27.164 25.384Q27.164 24.976 27.446 24.694Q27.728 24.412 28.136 24.412L28.88 24.412Q29.288 24.412 29.57 24.694Q29.852 24.976 29.852 25.384L29.852 26.5L31.784 26.5ZM24.0919 26.5Q24.308 26.1885 24.308 25.792L24.308 24.388Q24.308 23.86 23.942 23.494Q23.576 23.128 23.048 23.128L19.784 23.128Q19.232 23.128 18.77 23.398Q18.308 23.668 18.038 24.13Q17.768 24.592 17.768 25.144L17.768 26.5L24.0919 26.5ZM15.9427 26.5L13.712 21.244L11.588 21.244L9.35726 26.5L11.2717 26.5L12.656 23.236L14.0316 26.5L15.9427 26.5ZM21.872 25.768Q22.076 25.768 22.226 25.618Q22.376 25.468 22.376 25.264L22.376 24.916Q22.376 24.712 22.226 24.562Q22.076 24.412 21.872 24.412L20.42 24.412Q20.12 24.412 19.904 24.628Q19.688 24.844 19.688 25.144L19.688 25.768L21.872 25.768Z" id="矩形-复制-3-差异" fill="#FFFFFF" fill-rule="evenodd" stroke="none" />
  </g>
</svg>